<mxfile host="app.diagrams.net" modified="2023-08-02T18:37:19.714Z" agent="Mozilla/5.0 (Windows NT 10.0; Win64; x64) AppleWebKit/537.36 (KHTML, like Gecko) Chrome/106.0.0.0 Safari/537.36" etag="5s70ZvUnghf7IPlbG786" version="21.6.6" type="device">
  <diagram name="Страница 1" id="KrMR0HEBOF8-u6bVIpXX">
    <mxGraphModel dx="1114" dy="573" grid="1" gridSize="10" guides="1" tooltips="1" connect="1" arrows="1" fold="1" page="1" pageScale="1" pageWidth="827" pageHeight="1169" math="0" shadow="0">
      <root>
        <mxCell id="0" />
        <mxCell id="1" parent="0" />
        <mxCell id="YyWY8iluTcWURffDMS7K-2" value="В команде опишите бизнес-процесс «Заказ пиццы» в соответствии с разобранным алгоритмом.&amp;nbsp;&amp;nbsp;&lt;br&gt;Составьте схему бизнес-процесса" style="rounded=0;whiteSpace=wrap;html=1;" vertex="1" parent="1">
          <mxGeometry x="30" y="20" width="730" height="50" as="geometry" />
        </mxCell>
        <mxCell id="YyWY8iluTcWURffDMS7K-3" value="Менеджер" style="swimlane;childLayout=stackLayout;resizeParent=1;resizeParentMax=0;horizontal=0;startSize=20;horizontalStack=0;html=1;" vertex="1" parent="1">
          <mxGeometry x="10" y="110" width="800" height="360" as="geometry" />
        </mxCell>
        <mxCell id="YyWY8iluTcWURffDMS7K-4" value="Менеджер" style="swimlane;startSize=20;horizontal=0;html=1;" vertex="1" parent="YyWY8iluTcWURffDMS7K-3">
          <mxGeometry x="20" width="780" height="120" as="geometry" />
        </mxCell>
        <mxCell id="YyWY8iluTcWURffDMS7K-17" value="" style="edgeStyle=orthogonalEdgeStyle;rounded=0;orthogonalLoop=1;jettySize=auto;html=1;" edge="1" parent="YyWY8iluTcWURffDMS7K-4" source="YyWY8iluTcWURffDMS7K-8" target="YyWY8iluTcWURffDMS7K-10">
          <mxGeometry relative="1" as="geometry" />
        </mxCell>
        <mxCell id="YyWY8iluTcWURffDMS7K-8" value="" style="verticalLabelPosition=bottom;verticalAlign=top;html=1;shape=mxgraph.flowchart.on-page_reference;" vertex="1" parent="YyWY8iluTcWURffDMS7K-4">
          <mxGeometry x="40" y="40" width="40" height="40" as="geometry" />
        </mxCell>
        <mxCell id="YyWY8iluTcWURffDMS7K-18" value="" style="edgeStyle=orthogonalEdgeStyle;rounded=0;orthogonalLoop=1;jettySize=auto;html=1;" edge="1" parent="YyWY8iluTcWURffDMS7K-4" source="YyWY8iluTcWURffDMS7K-10" target="YyWY8iluTcWURffDMS7K-13">
          <mxGeometry relative="1" as="geometry" />
        </mxCell>
        <mxCell id="YyWY8iluTcWURffDMS7K-10" value="Обработка заявки" style="rounded=1;whiteSpace=wrap;html=1;" vertex="1" parent="YyWY8iluTcWURffDMS7K-4">
          <mxGeometry x="120" y="30" width="120" height="60" as="geometry" />
        </mxCell>
        <mxCell id="YyWY8iluTcWURffDMS7K-19" value="Нет&lt;br&gt;возм." style="edgeStyle=orthogonalEdgeStyle;rounded=0;orthogonalLoop=1;jettySize=auto;html=1;" edge="1" parent="YyWY8iluTcWURffDMS7K-4" source="YyWY8iluTcWURffDMS7K-13" target="YyWY8iluTcWURffDMS7K-15">
          <mxGeometry relative="1" as="geometry" />
        </mxCell>
        <mxCell id="YyWY8iluTcWURffDMS7K-13" value="" style="rhombus;whiteSpace=wrap;html=1;" vertex="1" parent="YyWY8iluTcWURffDMS7K-4">
          <mxGeometry x="280" y="20" width="80" height="80" as="geometry" />
        </mxCell>
        <mxCell id="YyWY8iluTcWURffDMS7K-20" value="" style="edgeStyle=orthogonalEdgeStyle;rounded=0;orthogonalLoop=1;jettySize=auto;html=1;" edge="1" parent="YyWY8iluTcWURffDMS7K-4" source="YyWY8iluTcWURffDMS7K-15" target="YyWY8iluTcWURffDMS7K-16">
          <mxGeometry relative="1" as="geometry" />
        </mxCell>
        <mxCell id="YyWY8iluTcWURffDMS7K-15" value="Сообщение Клиенту о невозможности исполнения" style="rounded=1;whiteSpace=wrap;html=1;" vertex="1" parent="YyWY8iluTcWURffDMS7K-4">
          <mxGeometry x="400" y="30" width="120" height="60" as="geometry" />
        </mxCell>
        <mxCell id="YyWY8iluTcWURffDMS7K-16" value="" style="verticalLabelPosition=bottom;verticalAlign=top;html=1;shape=mxgraph.flowchart.on-page_reference;strokeWidth=6;" vertex="1" parent="YyWY8iluTcWURffDMS7K-4">
          <mxGeometry x="700" y="40" width="40" height="40" as="geometry" />
        </mxCell>
        <mxCell id="YyWY8iluTcWURffDMS7K-5" value="Кухня" style="swimlane;startSize=20;horizontal=0;html=1;" vertex="1" parent="YyWY8iluTcWURffDMS7K-3">
          <mxGeometry x="20" y="120" width="780" height="120" as="geometry" />
        </mxCell>
        <mxCell id="YyWY8iluTcWURffDMS7K-27" value="" style="edgeStyle=orthogonalEdgeStyle;rounded=0;orthogonalLoop=1;jettySize=auto;html=1;" edge="1" parent="YyWY8iluTcWURffDMS7K-5" source="YyWY8iluTcWURffDMS7K-14" target="YyWY8iluTcWURffDMS7K-22">
          <mxGeometry relative="1" as="geometry" />
        </mxCell>
        <mxCell id="YyWY8iluTcWURffDMS7K-14" value="Принятие заказа" style="rounded=1;whiteSpace=wrap;html=1;" vertex="1" parent="YyWY8iluTcWURffDMS7K-5">
          <mxGeometry x="260" y="30" width="120" height="60" as="geometry" />
        </mxCell>
        <mxCell id="YyWY8iluTcWURffDMS7K-32" value="" style="edgeStyle=orthogonalEdgeStyle;rounded=0;orthogonalLoop=1;jettySize=auto;html=1;" edge="1" parent="YyWY8iluTcWURffDMS7K-5" source="YyWY8iluTcWURffDMS7K-22" target="YyWY8iluTcWURffDMS7K-23">
          <mxGeometry relative="1" as="geometry" />
        </mxCell>
        <mxCell id="YyWY8iluTcWURffDMS7K-22" value="Организация приготовления заказа&amp;nbsp;&lt;br&gt;" style="rounded=1;whiteSpace=wrap;html=1;" vertex="1" parent="YyWY8iluTcWURffDMS7K-5">
          <mxGeometry x="400" y="30" width="120" height="60" as="geometry" />
        </mxCell>
        <mxCell id="YyWY8iluTcWURffDMS7K-23" value="Передача в службу доставки" style="rounded=1;whiteSpace=wrap;html=1;" vertex="1" parent="YyWY8iluTcWURffDMS7K-5">
          <mxGeometry x="540" y="30" width="120" height="60" as="geometry" />
        </mxCell>
        <mxCell id="YyWY8iluTcWURffDMS7K-6" value="Служба доставки" style="swimlane;startSize=20;horizontal=0;html=1;" vertex="1" parent="YyWY8iluTcWURffDMS7K-3">
          <mxGeometry x="20" y="240" width="780" height="120" as="geometry" />
        </mxCell>
        <mxCell id="YyWY8iluTcWURffDMS7K-24" value="Получение заказа и организация доставки" style="rounded=1;whiteSpace=wrap;html=1;" vertex="1" parent="YyWY8iluTcWURffDMS7K-6">
          <mxGeometry x="540" y="30" width="120" height="60" as="geometry" />
        </mxCell>
        <mxCell id="YyWY8iluTcWURffDMS7K-21" value="Возможно исполнить" style="edgeStyle=orthogonalEdgeStyle;rounded=0;orthogonalLoop=1;jettySize=auto;html=1;" edge="1" parent="YyWY8iluTcWURffDMS7K-3" source="YyWY8iluTcWURffDMS7K-13" target="YyWY8iluTcWURffDMS7K-14">
          <mxGeometry relative="1" as="geometry" />
        </mxCell>
        <mxCell id="YyWY8iluTcWURffDMS7K-29" value="" style="edgeStyle=orthogonalEdgeStyle;rounded=0;orthogonalLoop=1;jettySize=auto;html=1;" edge="1" parent="YyWY8iluTcWURffDMS7K-3" source="YyWY8iluTcWURffDMS7K-23" target="YyWY8iluTcWURffDMS7K-24">
          <mxGeometry relative="1" as="geometry" />
        </mxCell>
        <mxCell id="YyWY8iluTcWURffDMS7K-31" value="" style="edgeStyle=orthogonalEdgeStyle;rounded=0;orthogonalLoop=1;jettySize=auto;html=1;entryX=0.5;entryY=1;entryDx=0;entryDy=0;entryPerimeter=0;" edge="1" parent="YyWY8iluTcWURffDMS7K-3" source="YyWY8iluTcWURffDMS7K-24" target="YyWY8iluTcWURffDMS7K-16">
          <mxGeometry relative="1" as="geometry">
            <mxPoint x="760" y="300" as="targetPoint" />
          </mxGeometry>
        </mxCell>
      </root>
    </mxGraphModel>
  </diagram>
</mxfile>
